<?xml version="1.0" standalone="no"?>
<!DOCTYPE svg PUBLIC "-//W3C//DTD SVG 20010904//EN"
 "http://www.w3.org/TR/2001/REC-SVG-20010904/DTD/svg10.dtd">
<svg version="1.0" xmlns="http://www.w3.org/2000/svg"
 width="2000.000000pt" height="1500.000000pt" viewBox="0 0 2000.000000 1500.000000"
 preserveAspectRatio="xMidYMid meet">

<g transform="translate(0.000000,1500.000000) scale(0.100000,-0.100000)"
fill="#000000" stroke="none">
<path d="M7425 9069 c-56 -76 -62 -97 -39 -140 11 -22 19 -64 21 -114 5 -103
-12 -139 -82 -175 l-49 -25 -376 -6 c-310 -5 -386 -10 -440 -24 -198 -53 -342
-183 -386 -349 -29 -107 -9 -297 33 -313 17 -7 55 27 94 87 33 49 34 71 4 150
-23 61 -17 169 11 206 45 61 140 84 347 84 l129 0 -6 -27 c-3 -16 -49 -280
-101 -588 -53 -308 -103 -589 -111 -624 -21 -94 -45 -139 -103 -199 -52 -54
-87 -109 -77 -120 4 -3 30 2 60 11 69 22 101 21 198 -3 l80 -21 43 21 c44 21
135 110 135 131 0 8 -10 9 -32 3 -41 -11 -174 -11 -184 -1 -5 4 -3 16 4 25 31
43 47 117 151 727 61 358 111 653 111 657 0 3 55 8 123 11 140 7 212 24 311
74 130 65 219 182 246 321 23 116 -7 282 -51 282 -12 0 -36 -24 -64 -61z"/>
<path d="M9090 9021 c-58 -15 -135 -38 -173 -50 -205 -69 -325 -265 -407 -664
-35 -171 -190 -1226 -190 -1290 0 -79 28 -144 65 -153 77 -19 243 118 310 257
34 71 48 159 26 159 -6 0 -29 -37 -52 -82 -52 -99 -105 -158 -143 -158 -56 0
-56 -1 48 677 108 695 124 783 166 909 68 199 137 266 305 294 39 7 84 21 102
31 33 21 75 77 67 91 -6 10 4 11 -124 -21z"/>
<path d="M9745 9019 c-141 -37 -203 -69 -280 -144 -139 -136 -240 -341 -308
-630 -15 -60 -69 -373 -121 -695 -52 -322 -102 -605 -110 -629 -20 -54 -20
-61 -1 -61 47 0 153 87 174 143 6 15 20 82 31 150 18 111 53 217 70 217 4 0
40 -59 80 -132 144 -263 228 -378 276 -378 70 0 199 147 235 268 21 72 -1 72
-59 0 -63 -80 -90 -96 -132 -78 -54 22 -155 166 -255 360 l-56 110 82 121
c181 267 288 333 405 250 l48 -33 18 22 c23 29 33 86 19 116 -17 39 -69 64
-131 64 -145 0 -283 -131 -461 -434 -41 -69 -75 -120 -77 -112 -4 18 79 568
114 756 55 295 115 439 235 558 56 56 95 75 194 97 67 15 86 23 117 55 40 40
49 71 21 69 -10 -1 -67 -14 -128 -30z"/>
<path d="M15285 9033 c-144 -35 -220 -65 -282 -109 -163 -117 -279 -329 -364
-667 -16 -65 -70 -355 -119 -645 -79 -470 -117 -676 -136 -736 -6 -17 -3 -18
26 -13 45 10 118 65 145 112 15 26 32 89 49 181 31 170 62 270 122 388 109
217 223 336 321 336 17 0 36 -7 43 -15 22 -27 5 -171 -55 -475 -74 -371 -77
-470 -16 -517 57 -44 201 43 282 168 48 76 87 219 59 219 -5 0 -30 -43 -56
-95 -25 -52 -57 -104 -71 -115 -31 -24 -66 -26 -83 -5 -17 21 -5 106 66 468
60 307 70 381 60 452 -15 100 -88 122 -207 63 -106 -53 -253 -212 -376 -407
-12 -19 -7 33 22 219 106 677 149 818 300 979 61 65 97 84 200 105 71 14 84
21 118 56 36 38 43 61 21 65 -5 1 -36 -4 -69 -12z"/>
<path d="M3895 8925 c-322 -52 -605 -201 -832 -439 -191 -199 -316 -435 -375
-709 -29 -137 -32 -426 -5 -560 60 -298 192 -543 406 -758 212 -212 439 -335
739 -401 140 -31 433 -31 575 0 591 130 1034 582 1143 1167 27 144 25 413 -4
548 -65 296 -190 526 -401 738 -211 210 -445 338 -736 401 -122 26 -386 33
-510 13z m820 -690 c13 -33 16 -64 13 -119 -11 -177 -138 -282 -366 -301 -45
-4 -82 -9 -82 -11 0 -31 -144 -840 -155 -868 l-15 -39 70 6 c86 7 89 -2 20
-67 -54 -51 -62 -53 -148 -31 -52 14 -63 14 -101 0 -24 -8 -47 -13 -51 -10
-15 10 2 45 50 99 41 47 51 66 64 128 15 68 136 764 136 780 0 5 -46 8 -102 8
-134 -1 -181 -19 -199 -79 -10 -33 -9 -48 5 -90 22 -68 21 -81 -15 -130 -60
-81 -106 -26 -95 112 11 150 102 250 263 292 42 11 114 15 268 15 115 0 230 5
255 11 86 20 112 73 84 168 -8 30 -13 63 -10 75 6 24 69 96 84 96 6 0 18 -20
27 -45z"/>
<path d="M10485 8384 c-79 -41 -121 -105 -141 -216 -25 -143 -13 -128 -102
-128 -71 0 -83 -3 -125 -31 -45 -29 -77 -64 -77 -81 0 -5 59 -8 130 -8 103 0
130 -3 130 -14 0 -7 -27 -182 -60 -389 -63 -393 -73 -518 -46 -580 46 -109
174 -99 291 24 61 64 98 134 93 177 -3 26 -4 25 -30 -20 -54 -91 -146 -141
-188 -103 -31 28 -26 99 40 510 33 206 60 379 60 385 0 6 32 10 78 10 55 0 85
5 102 16 42 28 99 87 94 96 -3 4 -61 8 -130 8 -85 0 -124 4 -124 11 0 45 36
226 56 278 13 35 24 65 24 67 0 10 -48 2 -75 -12z"/>
<path d="M14034 8368 c-72 -49 -103 -106 -121 -227 l-16 -101 -81 0 c-59 0
-88 -5 -106 -16 -34 -23 -100 -86 -100 -96 0 -4 61 -8 135 -8 135 0 135 0 130
-22 -3 -13 -31 -180 -62 -373 -80 -497 -79 -606 9 -651 78 -41 212 27 288 146
32 51 54 116 43 133 -3 5 -16 -7 -28 -27 -65 -108 -162 -158 -199 -104 -25 35
-19 96 48 508 l62 385 79 3 c75 3 82 5 131 43 45 34 64 57 64 75 0 2 -59 4
-131 4 -131 0 -131 0 -126 23 3 12 11 60 18 107 6 47 22 114 35 149 13 35 24
67 24 72 0 20 -50 7 -96 -23z"/>
<path d="M7767 8045 c-290 -80 -546 -432 -598 -822 -22 -167 5 -309 65 -348
70 -46 208 30 349 192 53 61 170 227 180 256 2 7 7 9 11 6 3 -3 -5 -62 -20
-130 -59 -285 -19 -387 125 -315 96 49 210 203 231 314 14 76 -5 69 -51 -19
-56 -105 -87 -139 -128 -139 -60 0 -57 34 39 516 39 190 77 373 86 406 9 38
12 64 6 70 -29 29 -210 36 -295 13z m46 -131 c69 -23 72 -31 52 -116 -57 -235
-136 -411 -268 -592 -68 -92 -137 -146 -187 -146 -21 0 -45 7 -54 15 -46 46
-17 319 54 512 100 272 238 383 403 327z"/>
<path d="M11251 8030 c-150 -71 -327 -295 -415 -525 -84 -220 -90 -451 -14
-566 75 -113 245 -98 392 33 142 126 274 361 332 588 25 99 25 294 0 359 -51
137 -156 176 -295 111z m60 -143 c45 -30 67 -77 81 -176 20 -141 -11 -350 -71
-487 -62 -140 -134 -204 -229 -204 -49 0 -58 3 -87 34 -47 50 -60 109 -59 266
1 110 6 153 27 233 46 175 122 302 201 338 55 25 96 24 137 -4z"/>
<path d="M12321 8044 c-186 -50 -379 -235 -486 -466 -80 -175 -122 -367 -111
-517 12 -156 64 -219 162 -193 58 16 115 53 188 121 66 63 166 188 217 270 18
30 34 50 36 44 2 -6 -10 -62 -26 -124 -17 -63 -46 -211 -66 -329 -48 -287 -81
-437 -115 -531 -63 -173 -163 -262 -312 -275 -176 -17 -266 76 -290 299 -13
118 -17 123 -74 88 -19 -12 -42 -41 -59 -76 -26 -51 -27 -63 -22 -141 4 -69
11 -98 36 -149 114 -230 365 -229 638 3 80 67 180 193 227 281 70 134 95 245
151 656 20 143 47 321 60 395 26 142 113 504 140 579 8 24 14 45 13 46 -2 2
-25 10 -51 19 -59 20 -182 20 -256 0z m44 -133 c63 -28 66 -34 49 -130 -19
-109 -53 -211 -115 -341 -116 -244 -235 -380 -330 -380 -58 0 -74 30 -73 139
3 286 147 631 295 705 62 31 117 33 174 7z"/>
<path d="M13238 8046 c-68 -24 -124 -64 -199 -143 -172 -180 -285 -441 -296
-684 -7 -135 9 -203 60 -270 46 -61 96 -84 182 -84 60 0 81 5 140 34 134 66
295 261 295 357 0 52 -20 41 -68 -36 -65 -104 -139 -158 -238 -175 -86 -14
-167 35 -192 117 -17 55 -22 148 -9 148 26 0 216 102 281 151 86 66 167 163
214 258 35 72 37 79 37 179 l0 104 -33 29 c-27 24 -41 29 -85 29 -28 -1 -68
-7 -89 -14z m41 -160 c20 -21 28 -89 19 -160 -20 -151 -163 -288 -303 -290
l-60 -1 2 45 c6 132 126 361 213 407 49 27 101 26 129 -1z"/>
<path d="M16048 8046 c-257 -92 -514 -559 -495 -900 4 -75 10 -98 38 -154 27
-53 44 -72 83 -97 43 -26 58 -30 120 -30 53 1 85 7 125 25 159 70 322 274 312
388 -2 25 -22 10 -57 -45 -68 -108 -135 -162 -227 -183 -136 -30 -227 53 -227
210 l0 46 68 28 c207 85 392 260 453 431 26 71 31 184 10 233 -8 18 -26 39
-42 47 -35 18 -112 19 -161 1z m37 -160 c31 -31 40 -86 27 -158 -15 -79 -47
-140 -103 -197 -61 -60 -129 -94 -201 -99 -71 -5 -75 2 -53 89 37 146 103 277
171 341 56 52 121 62 159 24z"/>
<path d="M16649 8032 c-96 -61 -244 -269 -225 -317 9 -25 19 -16 78 70 55 82
92 113 121 102 26 -10 22 -142 -8 -327 -44 -268 -114 -637 -126 -664 -7 -14
-9 -29 -6 -33 12 -12 89 31 132 73 60 58 75 91 86 196 29 254 136 514 268 649
64 66 116 87 169 68 37 -13 46 -35 37 -89 -9 -55 12 -53 64 6 73 84 97 219 46
269 -31 31 -100 33 -163 5 -88 -40 -218 -192 -313 -367 -34 -64 -54 -81 -44
-40 41 176 52 268 41 341 -14 88 -74 110 -157 58z"/>
</g>
</svg>
